<?xml version="1.0" standalone="no"?>
<!DOCTYPE svg PUBLIC "-//W3C//DTD SVG 1.1//EN" "http://www.w3.org/Graphics/SVG/1.1/DTD/svg11.dtd" >
<svg xmlns="http://www.w3.org/2000/svg">
<metadata></metadata>
<defs>
<font id="benjamins_gothicdemibold" horiz-adv-x="1071" >
<font-face units-per-em="2048" ascent="1638" descent="-410" />
<missing-glyph horiz-adv-x="460" />
<glyph horiz-adv-x="0" />
<glyph horiz-adv-x="682" />
<glyph unicode=" "  horiz-adv-x="460" />
<glyph unicode="&#x09;" horiz-adv-x="460" />
<glyph unicode="&#xa0;" horiz-adv-x="460" />
<glyph unicode="!" horiz-adv-x="479" d="M92 137q0 61 43 104.5t105 43.5q61 0 104 -43t43 -105q0 -61 -42.5 -104t-104.5 -43t-105 43t-43 104zM133 410v1048h213v-1048h-213z" />
<glyph unicode="&#x22;" horiz-adv-x="774" d="M61 1272q0 61 43 104t105 43q61 0 104 -42.5t43 -104.5q0 -21 -8 -49l-94 -269q-10 -32 -45 -32t-45 32l-94 269q-9 31 -9 49zM418 1272q0 62 43 104.5t104 42.5q62 0 105 -43t43 -104q0 -21 -8 -49l-95 -269q-10 -32 -45 -32t-45 32l-94 269q-8 28 -8 49z" />
<glyph unicode="#" horiz-adv-x="1284" d="M61 467v213h271l16 98h-287v213h328l88 467h213l-88 -467h176l88 467h213l-88 -467h232v-213h-273l-16 -98h289v-213h-330l-86 -467h-213l84 467h-174l-86 -467h-213l86 467h-230zM545 680h174l18 98h-176z" />
<glyph unicode="$" horiz-adv-x="1060" d="M94 1069q0 161 114.5 275t274.5 114q145 0 255 -78t155 -204l-182 -101q-23 76 -80 123t-139 47q-73 0 -128 -51.5t-55 -124.5q0 -62 36 -110t93 -58l164 -33q158 -31 262.5 -150.5t104.5 -279.5q0 -181 -128.5 -309.5t-308.5 -128.5q-138 0 -250.5 78t-160.5 203 l182 102q27 -76 87.5 -123t141.5 -47q94 0 159 65.5t65 159.5q0 81 -52 143t-129 76l-163 29q-137 25 -227.5 133t-90.5 250zM393 1444v166h185v-166h-185zM440 29h185v-181h-185v181z" />
<glyph unicode="%" horiz-adv-x="1961" d="M154 1094q0 151 106.5 257.5t257.5 106.5t258 -106.5t107 -257.5t-107 -258t-258 -107t-257.5 107t-106.5 258zM358 1094q0 -66 47 -113t113 -47t113 47t47 113t-47 112.5t-113 46.5t-113 -46.5t-47 -112.5zM461 0l827 1458h213l-827 -1458h-213zM1079 365 q0 151 107 257.5t258 106.5t257.5 -106.5t106.5 -257.5t-106.5 -258t-257.5 -107t-258 107t-107 258zM1284 365q0 -66 47 -113t113 -47t113 47t47 113t-47 112.5t-113 46.5t-113 -46.5t-47 -112.5z" />
<glyph unicode="&#x26;" horiz-adv-x="1095" d="M94 420q0 183 137 307q-64 58 -100.5 138.5t-36.5 172.5q0 173 122.5 296.5t295.5 123.5q83 0 156 -29.5t123 -77t83 -102t46 -110.5l-185 -92q-20 92 -79.5 143t-139.5 51q-90 0 -148.5 -59.5t-58.5 -145.5q0 -84 57 -143t138 -59h41v-211h-41q-84 0 -139.5 -59 t-55.5 -142q0 -84 59.5 -144.5t143.5 -60.5q83 0 144.5 60t62.5 143h-103v194h414v-194h-98q0 -173 -123.5 -296.5t-296.5 -123.5q-177 0 -297.5 121.5t-120.5 298.5z" />
<glyph unicode="'" horiz-adv-x="417" d="M61 1272q0 61 43 104t105 43q61 0 104 -42.5t43 -104.5q0 -21 -8 -49l-94 -269q-10 -32 -45 -32t-45 32l-94 269q-9 31 -9 49z" />
<glyph unicode="(" horiz-adv-x="600" d="M113 172v1114q0 181 128 309.5t308 128.5v-213q-92 0 -157.5 -65.5t-65.5 -159.5v-1114q0 -94 65.5 -159.5t157.5 -65.5v-213q-180 0 -308 128.5t-128 309.5z" />
<glyph unicode=")" horiz-adv-x="600" d="M51 -53q94 0 158.5 65.5t64.5 159.5v1114q0 94 -64.5 159.5t-158.5 65.5v213q180 0 308 -128.5t128 -309.5v-1114q0 -181 -128 -309.5t-308 -128.5v213z" />
<glyph unicode="*" horiz-adv-x="761" d="M92 1096l144 82l-144 82l74 126l141 -83v165h148v-165l141 83l74 -126l-146 -82l146 -82l-74 -127l-141 84v-166h-148v166l-141 -84z" />
<glyph unicode="+" horiz-adv-x="991" d="M113 623v213h276v301h213v-301h277v-213h-277v-301h-213v301h-276z" />
<glyph unicode="," horiz-adv-x="436" d="M61 135q0 62 43.5 106t104.5 44q74 0 120 -52.5t46 -138.5q0 -163 -77 -234t-230 -73v94q88 0 135 37q40 37 43 82q-2 -3 -14.5 -6.5t-22.5 -3.5q-66 0 -107 42t-41 103z" />
<glyph unicode="-" horiz-adv-x="712" d="M61 410v204h590v-204h-590z" />
<glyph unicode="." horiz-adv-x="417" d="M61 137q0 61 43.5 104.5t104.5 43.5t104 -43t43 -105q0 -61 -43 -104t-104 -43q-62 0 -105 43t-43 104z" />
<glyph unicode="/" horiz-adv-x="1005" d="M0 -152l801 1762h205l-801 -1762h-205z" />
<glyph unicode="0" horiz-adv-x="1058" d="M92 438v582q0 181 128 309.5t308 128.5q182 0 310.5 -128.5t128.5 -309.5v-582q0 -181 -128.5 -309.5t-310.5 -128.5q-180 0 -308 128.5t-128 309.5zM305 438q0 -94 65.5 -159.5t157.5 -65.5q94 0 160 65.5t66 159.5v582q0 94 -66 159.5t-160 65.5q-92 0 -157.5 -65.5 t-65.5 -159.5v-582z" />
<glyph unicode="1" horiz-adv-x="622" d="M10 1174q96 37 176.5 114t120.5 170h213v-1458h-213v1141q-70 -87 -194 -131z" />
<glyph unicode="2" horiz-adv-x="1007" d="M72 0v213l602 657q59 65 59 150q0 94 -65.5 159.5t-159.5 65.5q-92 0 -157.5 -65.5t-65.5 -159.5q0 -121 110 -207l-137 -149q-86 59 -136 152t-50 204q0 181 128 309.5t308 128.5q119 0 220 -58.5t159.5 -159.5t58.5 -220q0 -172 -110 -291l-474 -516h584v-213h-874z " />
<glyph unicode="3" horiz-adv-x="1005" d="M82 313l184 103q0 -85 61 -145t146 -60t146 60t61 145t-61 146t-146 61h-61v211h61q85 0 146 60.5t61 143.5q0 85 -61 145t-146 60t-146 -60t-61 -143l-184 103q31 142 137 229.5t254 87.5q173 0 296.5 -123.5t123.5 -296.5q0 -92 -40.5 -174t-109.5 -137 q69 -55 109.5 -137.5t40.5 -173.5q0 -173 -123.5 -295.5t-296.5 -122.5q-150 0 -258 85.5t-133 227.5z" />
<glyph unicode="4" horiz-adv-x="1001" d="M72 442v1016h213v-803h329v615h213v-615h123v-213h-123v-442h-213v442h-542z" />
<glyph unicode="5" horiz-adv-x="1028" d="M102 244l183 94q31 -67 90 -105t135 -38q104 0 176 74t72 180q0 108 -72 183t-180 75q-74 0 -131 -39t-90 -107l-183 94v803h793v-213h-580v-397q79 59 207 59q188 0 316.5 -132.5t128.5 -325.5q0 -190 -133.5 -324.5t-325.5 -134.5q-142 0 -245.5 67t-160.5 187z" />
<glyph unicode="6" horiz-adv-x="1058" d="M92 453v567q0 181 128 309.5t308 128.5q155 0 267.5 -90t156.5 -235l-184 -103q-21 98 -81 156.5t-155 58.5t-161 -65.5t-66 -159.5v-203q107 90 248 90q117 0 219.5 -61t163.5 -166t61 -227q0 -186 -132.5 -319.5t-319.5 -133.5q-186 0 -319.5 133.5t-133.5 319.5z M305 453q0 -100 70 -170t170 -70q101 0 170 70t69 170q0 101 -69 171t-170 70q-100 0 -170 -70t-70 -171z" />
<glyph unicode="7" horiz-adv-x="956" d="M51 1245v213h854v-203l-151 -358h116v-201h-200l-293 -696h-221l290 696h-116v201h200l148 348h-627z" />
<glyph unicode="8" horiz-adv-x="1003" d="M82 418q0 91 40 173.5t109 137.5q-69 55 -109 137t-40 174q0 173 123.5 296.5t296.5 123.5t296.5 -123.5t123.5 -296.5q0 -92 -40.5 -174t-109.5 -137q69 -55 109.5 -137.5t40.5 -173.5q0 -173 -123.5 -295.5t-296.5 -122.5t-296.5 122.5t-123.5 295.5zM295 416 q0 -85 61 -145t146 -60t146 60t61 145t-61 146t-146 61t-146 -61t-61 -146zM295 1038q0 -83 61 -143.5t146 -60.5t146 60.5t61 143.5q0 85 -61 145t-146 60t-146 -60t-61 -145z" />
<glyph unicode="9" horiz-adv-x="1058" d="M61 1006q0 186 133 319t320 133q186 0 319.5 -133t133.5 -319v-568q0 -181 -128.5 -309.5t-308.5 -128.5q-155 0 -267.5 90.5t-156.5 235.5l185 102q21 -98 81 -156.5t154 -58.5q95 0 161.5 65.5t66.5 159.5v203q-107 -90 -248 -90q-117 0 -220 61t-164 166.5t-61 227.5z M274 1006q0 -101 69.5 -171.5t170.5 -70.5q100 0 170 70.5t70 171.5q0 100 -70 169.5t-170 69.5q-101 0 -170.5 -69.5t-69.5 -169.5z" />
<glyph unicode=":" horiz-adv-x="540" d="M123 137q0 61 42.5 104.5t102.5 43.5q63 0 106.5 -43t43.5 -105t-43.5 -104.5t-106.5 -42.5q-60 0 -102.5 43t-42.5 104zM123 637q0 63 42.5 106t102.5 43q63 0 106.5 -43t43.5 -106q0 -60 -43.5 -102.5t-106.5 -42.5q-60 0 -102.5 42.5t-42.5 102.5z" />
<glyph unicode=";" horiz-adv-x="600" d="M154 135q0 62 43 106t104 44q74 0 120 -52.5t46 -138.5q0 -163 -77 -234t-230 -73v94q88 0 135 37q40 37 43 82q-2 -3 -14.5 -6.5t-22.5 -3.5q-66 0 -106.5 41.5t-40.5 103.5zM154 637q0 63 42.5 106t102.5 43q63 0 106.5 -43t43.5 -106q0 -60 -43.5 -102.5t-106.5 -42.5 q-60 0 -102.5 42.5t-42.5 102.5z" />
<glyph unicode="&#x3c;" horiz-adv-x="866" d="M123 573v213l620 308v-215l-415 -199l415 -199v-213z" />
<glyph unicode="=" horiz-adv-x="1183" d="M154 467v213h876v-213h-876zM154 778v213h876v-213h-876z" />
<glyph unicode="&#x3e;" horiz-adv-x="866" d="M123 268v213l416 199l-416 199v215l620 -308v-213z" />
<glyph unicode="?" horiz-adv-x="993" d="M51 1141q19 60 54 114t86.5 101t125 74.5t158.5 27.5q188 0 317.5 -128t129.5 -310q0 -153 -98.5 -272.5t-248.5 -147.5v-190h-213v387h107q93 0 158 65t65 158q0 94 -63 159.5t-154 65.5q-165 0 -231 -201zM309 152q0 66 47.5 112.5t112.5 46.5q66 0 114 -46.5 t48 -112.5t-48 -114t-114 -48q-65 0 -112.5 48t-47.5 114z" />
<glyph unicode="@" horiz-adv-x="1697" d="M123 729q0 149 57.5 283.5t155.5 232.5t234.5 155.5t287.5 57.5q198 0 361.5 -86.5t259.5 -244.5t96 -357t-81.5 -300t-211.5 -101q-138 0 -227 110q-45 -52 -109 -81t-135 -29q-136 0 -232 97t-96 232t96 231.5t232 96.5q92 0 168 -45v45h160v-360q0 -60 41.5 -103 t101.5 -43q141 0 141 250q0 158 -75 281.5t-203.5 190.5t-286.5 67q-160 0 -294.5 -78t-212 -211.5t-77.5 -290.5t77.5 -290t210.5 -210t290 -77h287v-152h-287q-148 0 -283 57.5t-233 155.5t-155.5 233t-57.5 283zM643 698q0 -70 48.5 -119t119.5 -49q69 0 118.5 49 t49.5 119t-49.5 119t-118.5 49q-71 0 -119.5 -49t-48.5 -119z" />
<glyph unicode="A" horiz-adv-x="915" d="M20 0l330 1458h213l332 -1458h-215l-29 135h-389l-29 -135h-213zM311 350h291l-145 654z" />
<glyph unicode="B" horiz-adv-x="1019" d="M92 0v213h31v1032h-31v213h447q173 0 296 -122.5t123 -295.5q0 -92 -40 -174t-109 -137q69 -55 109 -137.5t40 -173.5q0 -173 -123 -295.5t-296 -122.5h-447zM336 213h203q85 0 145.5 60t60.5 145t-60.5 146t-145.5 61h-203v-412zM336 834h203q85 0 145.5 60.5 t60.5 143.5q0 85 -60.5 146t-145.5 61h-203v-411z" />
<glyph unicode="C" horiz-adv-x="1468" d="M61 727q0 149 56.5 284t152.5 233t230 156t282 58q210 0 382 -110t263 -293l-190 -97q-64 130 -185.5 208.5t-269.5 78.5q-140 0 -257 -69.5t-184 -188.5t-67 -260q0 -214 147.5 -364t360.5 -150q150 0 271 77.5t184 207.5l190 -97q-89 -182 -261.5 -291.5t-383.5 -109.5 q-148 0 -282 57.5t-230 154.5t-152.5 231.5t-56.5 283.5z" />
<glyph unicode="D" horiz-adv-x="1263" d="M92 0v213h31v1032h-31v213h389q198 0 364 -98.5t261.5 -266.5t95.5 -366q0 -149 -56.5 -283.5t-152.5 -231.5t-230 -154.5t-282 -57.5h-389zM338 213h143q213 0 360.5 150t147.5 364q0 141 -67 260t-184 188.5t-257 69.5h-143v-1032z" />
<glyph unicode="E" horiz-adv-x="1079" d="M113 0v1458h874v-213h-661v-409h661v-213h-661v-410h661v-213h-874z" />
<glyph unicode="F" d="M113 0v1458h876v-213h-661v-409h661v-213h-661v-623h-215z" />
<glyph unicode="G" horiz-adv-x="1564" d="M61 727q0 149 56.5 284t152.5 233t230 156t282 58q210 0 382 -110t263 -293l-190 -97q-64 130 -185.5 208.5t-269.5 78.5q-140 0 -257 -69.5t-184 -188.5t-67 -260q0 -214 147.5 -364t360.5 -150q184 0 322 115.5t174 292.5h-246v213h471v-107q0 -149 -56.5 -283.5 t-152.5 -231.5t-230 -154.5t-282 -57.5t-282 57.5t-230 154.5t-152.5 231.5t-56.5 283.5z" />
<glyph unicode="H" horiz-adv-x="1101" d="M113 0v1458h215v-622h446v622h215v-1458h-215v623h-446v-623h-215z" />
<glyph unicode="I" horiz-adv-x="458" d="M92 0v213h31v1032h-31v213h275v-213h-31v-1032h31v-213h-275z" />
<glyph unicode="J" horiz-adv-x="745" d="M51 291v100h213v-100q0 -35 21.5 -56.5t56.5 -21.5t56.5 21.5t21.5 56.5v954h-31v213h275v-213h-31v-954q0 -120 -85.5 -205.5t-205.5 -85.5t-205.5 85.5t-85.5 205.5z" />
<glyph unicode="K" horiz-adv-x="940" d="M113 0v1458h215v-637l366 637h236l-420 -719l430 -739h-235l-377 637v-637h-215z" />
<glyph unicode="L" horiz-adv-x="966" d="M123 0v1458h213v-1245h600v-213h-813z" />
<glyph unicode="M" horiz-adv-x="1454" d="M31 0l223 1458h285l188 -1048l188 1048h285l223 -1458h-225l-154 1049l-184 -1049h-266l-184 1049l-154 -1049h-225z" />
<glyph unicode="N" horiz-adv-x="1101" d="M113 0v1458h266l395 -1018v1018h215v-1458h-266l-395 1018v-1018h-215z" />
<glyph unicode="O" horiz-adv-x="1564" d="M61 727q0 149 56.5 284t152.5 233t230 156t282 58t282 -58t230 -156t152.5 -233t56.5 -284t-56.5 -283.5t-152.5 -231.5t-230 -154.5t-282 -57.5t-282 57.5t-230 154.5t-152.5 231.5t-56.5 283.5zM274 727q0 -214 147.5 -364t360.5 -150t360.5 150t147.5 364 q0 141 -67 260t-184 188.5t-257 69.5t-257 -69.5t-184 -188.5t-67 -260z" />
<glyph unicode="P" horiz-adv-x="991" d="M113 0v1458h417q173 0 296.5 -122.5t123.5 -295.5t-123 -295t-297 -122h-202v-623h-215zM328 836h202q85 0 146 60t61 144q0 85 -61 145t-146 60h-202v-409z" />
<glyph unicode="Q" horiz-adv-x="1574" d="M61 729q0 149 56.5 284t152.5 233t230 156t282 58t282 -58t230 -156t152.5 -233t56.5 -284q0 -279 -182 -487l139 -140l-147 -145l-150 152q-175 -109 -381 -109q-148 0 -282 57.5t-230 155.5t-152.5 232.5t-56.5 283.5zM274 727q0 -141 67 -259.5t184 -187.5t257 -69 q134 0 226 51l-136 135l148 146l149 -152q121 143 121 336q0 141 -67 259.5t-184 187.5t-257 69t-257 -69t-184 -187.5t-67 -259.5z" />
<glyph unicode="R" horiz-adv-x="1011" d="M113 0v1458h215h202q173 0 296.5 -122.5t123.5 -295.5q0 -151 -94.5 -264.5t-239.5 -144.5l334 -631h-229l-332 623h-61v-623h-215zM328 836h202q85 0 146 60t61 144q0 85 -61 145t-146 60h-202v-409z" />
<glyph unicode="S" horiz-adv-x="1007" d="M72 1069q0 162 114 275.5t279 113.5q149 0 254 -76t151 -206l-182 -101q-23 77 -79 123.5t-140 46.5q-74 0 -128 -51t-54 -125q0 -62 36 -110t93 -58l164 -33q158 -31 262 -150.5t104 -279.5q0 -181 -128 -309.5t-308 -128.5q-138 0 -251 78.5t-161 202.5l183 102 q27 -76 87.5 -123t141.5 -47q94 0 158.5 65.5t64.5 159.5q0 81 -51.5 143t-128.5 76l-164 29q-137 25 -227 133t-90 250z" />
<glyph unicode="T" horiz-adv-x="935" d="M31 1245v213h874v-213h-332v-1032h31v-213h-274v213h30v1032h-329z" />
<glyph unicode="U" horiz-adv-x="1089" d="M102 438v1020h213v-1020q0 -95 66 -160t160 -65t158.5 65t64.5 160v1020h213v-1458h-213v70q-98 -70 -223 -70q-182 0 -310.5 128.5t-128.5 309.5z" />
<glyph unicode="V" horiz-adv-x="1024" d="M20 1458h228l264 -1079l264 1079h228l-369 -1458h-246z" />
<glyph unicode="W" horiz-adv-x="1669" d="M61 1458h220l223 -1100l184 1100h293l184 -1100l224 1100h219l-310 -1458h-274l-190 1100l-191 -1100h-270z" />
<glyph unicode="X" horiz-adv-x="997" d="M61 0l332 729l-332 729h215l224 -504l223 504h215l-332 -729l332 -729h-215l-223 498l-224 -498h-215z" />
<glyph unicode="Y" horiz-adv-x="894" d="M10 1458h213l223 -516l224 516h215l-332 -729v-516h31v-213h-275v213h31v516z" />
<glyph unicode="Z" horiz-adv-x="997" d="M61 0v213l293 483h-108v201h231l211 348h-627v213h875v-213l-211 -348h102v-201h-225l-293 -483h627v-213h-875z" />
<glyph unicode="[" horiz-adv-x="548" d="M113 -266v1990h426v-204h-213v-1581h213v-205h-426z" />
<glyph unicode="\" horiz-adv-x="1005" d="M0 1610h205l801 -1762h-205z" />
<glyph unicode="]" horiz-adv-x="548" d="M10 -61h213v1581h-213v204h426v-1990h-426v205z" />
<glyph unicode="^" horiz-adv-x="1177" d="M182 897l299 561h213l301 -561h-215l-192 395l-193 -395h-213z" />
<glyph unicode="_" horiz-adv-x="1101" d="M113 -61h876v-205h-876v205z" />
<glyph unicode="`" horiz-adv-x="434" d="M10 1849h209l205 -295h-209z" />
<glyph unicode="a" d="M51 449q0 189 135 323.5t324 134.5q159 0 254 -98v88h205v-897h-205v88q-95 -98 -254 -98q-189 0 -324 135t-135 324zM254 449q0 -106 74 -180t180 -74q104 0 177.5 70t78.5 173v21q-5 103 -78.5 174.5t-177.5 71.5q-106 0 -180 -74.5t-74 -181.5z" />
<glyph unicode="b" d="M102 0v1458h205v-649q95 98 254 98q189 0 324 -134.5t135 -323.5t-135 -324t-324 -135q-159 0 -254 98v-88h-205zM307 438q5 -103 78.5 -173t177.5 -70q106 0 180 74t74 180q0 107 -74 181.5t-180 74.5q-104 0 -177.5 -71.5t-78.5 -174.5v-21z" />
<glyph unicode="c" horiz-adv-x="946" d="M51 449q0 189 135 323.5t324 134.5q141 0 243.5 -67t161.5 -187l-178 -90q-31 69 -91 108.5t-138 39.5q-107 0 -180.5 -76t-73.5 -186q0 -109 73.5 -185t180.5 -76q78 0 138 39t91 107l178 -90q-57 -120 -160.5 -187t-244.5 -67q-189 0 -324 135t-135 324z" />
<glyph unicode="d" d="M51 449q0 189 135 323.5t324 134.5q159 0 254 -98v649h205v-1458h-205v88q-95 -98 -254 -98q-189 0 -324 135t-135 324zM254 449q0 -106 74 -180t180 -74q104 0 177.5 70t78.5 173v21q-5 103 -78.5 174.5t-177.5 71.5q-106 0 -180 -74.5t-74 -181.5z" />
<glyph unicode="e" horiz-adv-x="997" d="M51 449q0 190 130.5 324t318.5 134q187 0 316.5 -132.5t129.5 -317.5q0 -62 -10 -101h-666q17 -74 86 -122t154 -48q152 0 221 119l180 -90q-61 -106 -163.5 -165.5t-233.5 -59.5q-195 0 -329 133.5t-134 325.5zM264 541h467q-19 78 -80 125t-151 47q-88 0 -149 -46.5 t-87 -125.5z" />
<glyph unicode="f" horiz-adv-x="751" d="M41 700v197h133v281q0 120 84.5 205t204.5 85t204.5 -85t84.5 -205v-101h-205v101q0 38 -23.5 62t-60.5 24t-60.5 -24t-23.5 -62v-281h178v-197h-178v-700h-205v700h-133z" />
<glyph unicode="g" d="M51 449q0 189 135 323.5t324 134.5q159 0 254 -98v88h205v-887q0 -206 -126 -329t-331 -123q-143 0 -247.5 66t-158.5 183l179 103q31 -69 92 -111.5t141 -42.5q112 0 179 67.5t67 176.5v88q-95 -98 -254 -98q-189 0 -324 135t-135 324zM254 449q0 -106 74 -180t180 -74 q104 0 177.5 70t78.5 173v21q-5 103 -78.5 174.5t-177.5 71.5q-106 0 -180 -74.5t-74 -181.5z" />
<glyph unicode="h" horiz-adv-x="927" d="M102 0v1458h205v-657q47 56 101 81t127 25q130 0 220.5 -94t90.5 -227v-586h-205v530q0 84 -45 134.5t-125 50.5q-73 0 -118.5 -50.5t-45.5 -127.5v-537h-205z" />
<glyph unicode="i" horiz-adv-x="403" d="M41 1257q0 66 47.5 114t112.5 48q66 0 113.5 -48t47.5 -114t-47.5 -112.5t-113.5 -46.5q-65 0 -112.5 46.5t-47.5 112.5zM98 0v897h205v-897h-205z" />
<glyph unicode="j" horiz-adv-x="403" d="M41 1257q0 66 47.5 114t112.5 48q66 0 113.5 -48t47.5 -114t-47.5 -112.5t-113.5 -46.5q-65 0 -112.5 46.5t-47.5 112.5zM98 -516v1413h205v-1413h-205z" />
<glyph unicode="k" horiz-adv-x="792" d="M102 0v1257h205v-737l232 377h233l-287 -448l297 -449h-233l-242 356v-356h-205z" />
<glyph unicode="l" horiz-adv-x="409" d="M102 0v1458h205v-1458h-205z" />
<glyph unicode="m" horiz-adv-x="1384" d="M102 0v897h205v-92q72 102 211 102q152 0 219 -121q36 56 98.5 88.5t139.5 32.5q145 0 236.5 -90.5t91.5 -230.5v-586h-205v557q0 76 -42 117t-106 41q-62 0 -103.5 -41t-41.5 -117v-557h-205v557q0 76 -41.5 117t-105.5 41q-62 0 -104 -41t-42 -117v-557h-205z" />
<glyph unicode="n" horiz-adv-x="927" d="M102 0v897h205v-96q47 56 101 81t127 25q130 0 220.5 -94t90.5 -227v-586h-205v530q0 84 -45 134.5t-125 50.5q-73 0 -118.5 -50.5t-45.5 -127.5v-537h-205z" />
<glyph unicode="o" horiz-adv-x="1017" d="M51 449q0 189 135 323.5t324 134.5t323 -134.5t134 -323.5t-134 -324t-323 -135t-324 135t-135 324zM254 449q0 -109 73 -185t181 -76q109 0 182.5 75.5t73.5 185.5q0 111 -73 186.5t-183 75.5q-108 0 -181 -75.5t-73 -186.5z" />
<glyph unicode="p" d="M102 -516v1413h205v-88q95 98 254 98q189 0 324 -134.5t135 -323.5t-135 -324t-324 -135q-159 0 -254 98v-604h-205zM307 438q5 -103 78.5 -173t177.5 -70q106 0 180 74t74 180q0 107 -74 181.5t-180 74.5q-104 0 -177.5 -71.5t-78.5 -174.5v-21z" />
<glyph unicode="q" d="M51 449q0 189 135 323.5t324 134.5q159 0 254 -98v88h205v-1413h-205v604q-95 -98 -254 -98q-189 0 -324 135t-135 324zM254 449q0 -106 74 -180t180 -74q104 0 177.5 70t78.5 173v21q-5 103 -78.5 174.5t-177.5 71.5q-106 0 -180 -74.5t-74 -181.5z" />
<glyph unicode="r" horiz-adv-x="643" d="M102 0v897h205v-129q84 139 248 139q27 0 47 -4v-221q-27 12 -72 12q-104 0 -163.5 -67t-59.5 -189v-438h-205z" />
<glyph unicode="s" horiz-adv-x="638" d="M41 182l166 92q13 -43 43.5 -67.5t68.5 -24.5q43 0 68 26.5t25 61.5q0 64 -82 90l-74 25q-201 68 -201 264q0 104 80 181t182 77q96 0 163.5 -49t94.5 -129l-153 -88q-8 34 -31 54t-59 20q-37 0 -59.5 -23t-22.5 -55q0 -60 74 -82l71 -23q101 -32 157 -96.5t56 -161.5 q0 -121 -80 -202.5t-202 -81.5q-103 0 -179 53.5t-106 138.5z" />
<glyph unicode="t" horiz-adv-x="546" d="M20 700v197h134v360h204v-360h179v-197h-179v-700h-204v700h-134z" />
<glyph unicode="u" horiz-adv-x="937" d="M92 311v586h205v-530q0 -84 45 -134.5t125 -50.5q73 0 118.5 50.5t45.5 127.5v537h205v-897h-205v96q-47 -56 -101 -81t-127 -25q-130 0 -220.5 94t-90.5 227z" />
<glyph unicode="v" horiz-adv-x="806" d="M10 897h205l188 -600l189 600h205l-291 -897h-205z" />
<glyph unicode="w" horiz-adv-x="1224" d="M10 897h205l147 -590l148 590h205l147 -590l148 590h204l-249 -897h-205l-148 582l-147 -582h-205z" />
<glyph unicode="x" horiz-adv-x="849" d="M10 0l307 449l-307 448h223l191 -289l192 289h224l-308 -448l308 -449h-224l-192 287l-191 -287h-223z" />
<glyph unicode="y" horiz-adv-x="917" d="M10 897h226l221 -526l233 526h217l-641 -1413h-213l299 663z" />
<glyph unicode="z" horiz-adv-x="864" d="M82 0v180l457 516h-457v201h711v-180l-457 -516h457v-201h-711z" />
<glyph unicode="{" horiz-adv-x="665" d="M51 623v213h62q43 0 74.5 31.5t31.5 74.5v344q0 181 128 309.5t308 128.5v-213q-92 0 -157.5 -65.5t-65.5 -159.5v-1114q0 -94 65.5 -159.5t157.5 -65.5v-213q-180 0 -308 128.5t-128 309.5v344q0 43 -31.5 75t-74.5 32h-62z" />
<glyph unicode="|" horiz-adv-x="520" d="M154 -152v1762h213v-1762h-213z" />
<glyph unicode="}" horiz-adv-x="665" d="M10 -53q92 0 157.5 65.5t65.5 159.5v1114q0 94 -65.5 159.5t-157.5 65.5v213q180 0 308 -128.5t128 -309.5v-344q0 -43 32 -74.5t75 -31.5h61v-213h-61q-43 0 -75 -32t-32 -75v-344q0 -181 -128 -309.5t-308 -128.5v213z" />
<glyph unicode="~" horiz-adv-x="864" d="M20 1163l205 295h209l101 -155l100 155h209l-205 -295h-209l-100 156l-101 -156h-209z" />
<glyph unicode="&#xa1;" horiz-adv-x="479" d="M92 1321q0 61 43 104t105 43t104.5 -43t42.5 -104t-42.5 -104t-104.5 -43t-105 43t-43 104zM133 0v1049h213v-1049h-213z" />
<glyph unicode="&#xa2;" horiz-adv-x="946" d="M51 449q0 189 135 323.5t324 134.5q141 0 243.5 -67t161.5 -187l-178 -90q-31 69 -91 108.5t-138 39.5q-107 0 -180.5 -76t-73.5 -186q0 -109 73.5 -185t180.5 -76q78 0 138 39t91 107l178 -90q-57 -120 -160.5 -187t-244.5 -67q-189 0 -324 135t-135 324zM420 147h184 v-299h-184v299zM420 770v279h184v-279h-184z" />
<glyph unicode="&#xa3;" horiz-adv-x="1099" d="M51 696v201h572v-201h-572zM184 0v1020q0 181 128.5 309.5t310.5 128.5q180 0 308 -128.5t128 -309.5h-213q0 94 -65.5 159.5t-157.5 65.5q-94 0 -160 -65.5t-66 -159.5v-807h600v-213h-813z" />
<glyph unicode="&#xa4;" horiz-adv-x="1269" d="M205 430l114 115q-49 87 -49 184q0 98 49 182l-114 117l131 131l115 -117q87 52 184 52q98 0 182 -52l117 117l131 -131l-117 -117q51 -82 51 -182q0 -99 -51 -184l117 -115l-131 -131l-117 115q-84 -49 -182 -49q-97 0 -184 49l-115 -115zM475 729q0 -66 47 -113 t113 -47t113 47t47 113t-47 113t-113 47t-113 -47t-47 -113z" />
<glyph unicode="&#xa5;" horiz-adv-x="894" d="M10 1458h213l223 -516l224 516h215l-256 -561h215v-184h-291v-62h291v-184h-291v-254h31v-213h-275v213h31v254h-289v184h289v62h-289v184h213z" />
<glyph unicode="&#xa6;" horiz-adv-x="520" d="M154 -152v766h213v-766h-213zM154 844v766h213v-766h-213z" />
<glyph unicode="&#xa7;" horiz-adv-x="1007" d="M72 553q0 148 98 254q-98 112 -98 262q0 161 114.5 275t274.5 114q145 0 254.5 -78t154.5 -204l-182 -101q-23 76 -80 123t-139 47q-73 0 -127.5 -51.5t-54.5 -124.5q0 -62 36 -110t93 -58l164 -33q158 -31 262 -150.5t104 -279.5q0 -146 -88 -258q88 -115 88 -258 q0 -181 -128 -309.5t-308 -128.5q-138 0 -251 78t-161 202l183 103q27 -76 87.5 -123t141.5 -47q94 0 158.5 65.5t64.5 159.5q0 81 -51.5 143t-128.5 76l-164 29q-137 25 -227 133t-90 250zM287 553q0 -62 36 -110t93 -58l164 -33q50 -10 114 -39q39 55 39 125 q0 81 -51.5 143t-128.5 76l-164 29q-26 4 -39 8q-63 -53 -63 -141z" />
<glyph unicode="&#xa8;" horiz-adv-x="700" d="M0 1702q0 62 43 104.5t104 42.5q62 0 105 -43t43 -104q0 -62 -43.5 -105t-104.5 -43t-104 43t-43 105zM406 1702q0 62 43 104.5t104 42.5t104 -42.5t43 -104.5t-43 -105t-104 -43t-104 43t-43 105z" />
<glyph unicode="&#xa9;" horiz-adv-x="1114" d="M92 1178q0 192 136.5 328t328.5 136t328.5 -136t136.5 -328t-136.5 -328.5t-328.5 -136.5t-328.5 136.5t-136.5 328.5zM174 1178q0 -158 112.5 -270.5t270.5 -112.5t270.5 112.5t112.5 270.5t-112.5 270.5t-270.5 112.5t-270.5 -112.5t-112.5 -270.5zM279 1176 q0 117 80.5 199.5t197.5 82.5q80 0 146 -42.5t102 -112.5l-76 -37q-24 48 -70 78t-102 30q-83 0 -140 -57.5t-57 -140.5q0 -82 57 -139.5t140 -57.5q57 0 102.5 29.5t69.5 78.5l76 -36q-34 -69 -101 -111.5t-147 -42.5q-117 0 -197.5 81.5t-80.5 197.5z" />
<glyph unicode="&#xaa;" horiz-adv-x="864" d="M31 752v84h336v-84h-336zM37 897l127 561h82l127 -561h-82l-12 51h-150l-10 -51h-82zM147 1032h113l-55 252z" />
<glyph unicode="&#xab;" horiz-adv-x="944" d="M41 680l297 487h213l-295 -487l295 -485h-213zM362 680l295 487h215l-297 -487l297 -485h-215z" />
<glyph unicode="&#xac;" horiz-adv-x="1183" d="M154 623v213h876v-500h-215v287h-661z" />
<glyph unicode="&#xad;" horiz-adv-x="712" d="M61 410v204h590v-204h-590z" />
<glyph unicode="&#xae;" horiz-adv-x="1114" d="M92 1178q0 192 136.5 328t328.5 136t328.5 -136t136.5 -328t-136.5 -328.5t-328.5 -136.5t-328.5 136.5t-136.5 328.5zM174 1178q0 -158 112.5 -270.5t270.5 -112.5t270.5 112.5t112.5 270.5t-112.5 270.5t-270.5 112.5t-270.5 -112.5t-112.5 -270.5zM422 897v561h84h78 q66 0 112.5 -47.5t46.5 -114.5q0 -59 -38.5 -103.5t-96.5 -53.5l129 -242h-92l-139 262v-262h-84zM506 1219h78q32 0 55 22.5t23 54.5q0 34 -23 57t-55 23h-78v-157z" />
<glyph unicode="&#xaf;" horiz-adv-x="458" d="M-207 1554v205h875v-205h-875z" />
<glyph unicode="&#xb0;" horiz-adv-x="684" d="M61 1178q0 117 82 198.5t199 81.5t199 -81.5t82 -198.5t-82 -199t-199 -82t-199 82t-82 199zM246 1178q0 -40 28 -68.5t68 -28.5t68 28.5t28 68.5t-28 68t-68 28t-68 -28t-28 -68z" />
<glyph unicode="&#xb1;" horiz-adv-x="991" d="M113 0v213h766v-213h-766zM113 623v213h276v301h213v-301h277v-213h-277v-301h-213v301h-276z" />
<glyph unicode="&#xb2;" horiz-adv-x="491" d="M82 897v82l231 254q23 23 23 57q0 35 -25.5 60.5t-60.5 25.5t-60.5 -25.5t-25.5 -60.5q0 -48 43 -80l-53 -57q-72 49 -72 137q0 69 49.5 118.5t118.5 49.5t119.5 -49.5t50.5 -118.5q0 -66 -43 -112l-184 -199h227v-82h-338z" />
<glyph unicode="&#xb3;" horiz-adv-x="446" d="M61 1018l72 41q0 -34 23 -57t57 -23q33 0 56.5 23.5t23.5 56.5q0 31 -24 55.5t-56 24.5h-25v80h25q32 0 56 23t24 54q0 33 -23.5 56.5t-56.5 23.5q-34 0 -57 -23t-23 -55l-72 39q12 56 53 89.5t99 33.5q67 0 114.5 -48t47.5 -114q0 -73 -60 -120q60 -47 60 -119 q0 -67 -47.5 -114.5t-114.5 -47.5q-59 0 -101 33t-51 88z" />
<glyph unicode="&#xb4;" horiz-adv-x="434" d="M10 1554l205 295h209l-205 -295h-209z" />
<glyph unicode="&#xb6;" horiz-adv-x="1177" d="M152 1040q0 172 127 295t301 123h540v-213h-30v-409h30v-213h-30v-1139h-213v1139h-82v-1139h-205v1139h-21q-173 0 -295 122t-122 295zM367 1040q0 -84 63.5 -144t149.5 -60h10v409h-21q-84 0 -143 -60t-59 -145zM795 836h82v409h-82v-409z" />
<glyph unicode="&#xb7;" horiz-adv-x="444" d="M61 637q0 66 47.5 114t112.5 48q66 0 114 -48t48 -114t-48 -113t-114 -47q-65 0 -112.5 47t-47.5 113z" />
<glyph unicode="&#xb8;" horiz-adv-x="395" d="M10 -438l166 370h209l-166 -370h-209z" />
<glyph unicode="&#xb9;" horiz-adv-x="350" d="M41 1350q37 14 68.5 43.5t46.5 64.5h82v-561h-82v438q-28 -35 -76 -49z" />
<glyph unicode="&#xba;" horiz-adv-x="864" d="M61 1178q0 116 80.5 198t196.5 82t197 -82t81 -198q0 -117 -80.5 -199t-197.5 -82t-197 82t-80 199zM113 752v84h452v-84h-452zM143 1178q0 -83 56.5 -141t138.5 -58q83 0 140 58t57 141q0 82 -57 140t-140 58q-81 0 -138 -58t-57 -140z" />
<glyph unicode="&#xbb;" horiz-adv-x="944" d="M72 195l297 485l-297 487h215l295 -487l-295 -485h-215zM393 195l295 485l-295 487h213l297 -487l-297 -485h-213z" />
<glyph unicode="&#xbc;" horiz-adv-x="1226" d="M154 420l309 309l-309 309l149 152l311 -309l310 309l149 -152l-309 -309l309 -309l-149 -152l-310 310l-311 -310z" />
<glyph unicode="&#xbd;" horiz-adv-x="1226" d="M154 420l309 309l-309 309l149 152l311 -309l310 309l149 -152l-309 -309l309 -309l-149 -152l-310 310l-311 -310z" />
<glyph unicode="&#xbe;" horiz-adv-x="1226" d="M154 420l309 309l-309 309l149 152l311 -309l310 309l149 -152l-309 -309l309 -309l-149 -152l-310 310l-311 -310z" />
<glyph unicode="&#xbf;" horiz-adv-x="993" d="M72 438q0 153 98 272.5t248 147.5v191h213v-387h-107q-93 0 -158 -65.5t-65 -158.5q0 -94 63 -159.5t154 -65.5q166 0 232 201l192 -97q-19 -60 -54 -114t-86.5 -101t-125 -74.5t-158.5 -27.5q-188 0 -317 128t-129 310zM362 1307q0 66 48 113.5t114 47.5 q65 0 112.5 -47.5t47.5 -113.5t-47.5 -113t-112.5 -47q-66 0 -114 47t-48 113z" />
<glyph unicode="&#xc0;" horiz-adv-x="935" d="M31 0l329 1458h213l332 -1458h-215l-28 135h-390l-28 -135h-213zM154 1849h208l205 -295h-209zM322 350h290l-145 654z" />
<glyph unicode="&#xc1;" horiz-adv-x="935" d="M31 0l329 1458h213l332 -1458h-215l-28 135h-390l-28 -135h-213zM322 350h290l-145 654zM367 1554l204 295h209l-205 -295h-208z" />
<glyph unicode="&#xc2;" horiz-adv-x="935" d="M31 0l329 1458h213l332 -1458h-215l-28 135h-390l-28 -135h-213zM158 1554l204 295h209l205 -295h-209l-100 156l-100 -156h-209zM322 350h290l-145 654z" />
<glyph unicode="&#xc3;" horiz-adv-x="995" d="M49 0l330 1458h213l332 -1458h-215l-29 135h-389l-29 -135h-213zM100 1554l205 295h209l100 -155l101 155h209l-205 -295h-209l-100 156l-101 -156h-209zM340 350h291l-146 654z" />
<glyph unicode="&#xc4;" horiz-adv-x="995" d="M74 0l329 1458h213l332 -1458h-215l-28 135h-390l-28 -135h-213zM160 1702q0 62 43 104.5t104 42.5q62 0 105 -43t43 -104q0 -62 -43.5 -105t-104.5 -43t-104 43t-43 105zM365 350h290l-145 654zM565 1702q0 61 43 104t105 43q61 0 104 -42.5t43 -104.5t-43 -105 t-104 -43t-104.5 43t-43.5 105z" />
<glyph unicode="&#xc5;" horiz-adv-x="935" d="M31 0l286 1270q-61 37 -96 100t-35 137q0 117 82 199t199 82t199 -82t82 -199q0 -73 -36 -136t-96 -101l289 -1270h-215l-28 135h-390l-28 -135h-213zM322 350h290l-145 654zM371 1507q0 -40 28 -68t68 -28t68 28t28 68t-28 68.5t-68 28.5t-68 -28.5t-28 -68.5z" />
<glyph unicode="&#xc6;" horiz-adv-x="1675" d="M61 0l662 1458h874v-213h-661v-409h661v-213h-661v-410h661v-213h-874v135h-379l-59 -135h-224zM440 350h283v631z" />
<glyph unicode="&#xc7;" horiz-adv-x="1468" d="M61 727q0 149 56.5 284t152.5 233t230 156t282 58q210 0 382 -110t263 -293l-190 -97q-64 130 -185.5 208.5t-269.5 78.5q-140 0 -257 -69.5t-184 -188.5t-67 -260q0 -214 147.5 -364t360.5 -150q150 0 271 77.5t184 207.5l190 -97q-89 -182 -261.5 -291.5t-383.5 -109.5 q-148 0 -282 57.5t-230 154.5t-152.5 231.5t-56.5 283.5zM520 -438l166 370h209l-166 -370h-209z" />
<glyph unicode="&#xc8;" horiz-adv-x="1079" d="M113 0v1458h874v-213h-661v-409h661v-213h-661v-410h661v-213h-874zM264 1849h209l205 -295h-209z" />
<glyph unicode="&#xc9;" horiz-adv-x="1085" d="M113 0v1458h874v-213h-661v-409h661v-213h-661v-410h661v-213h-874zM399 1554l205 295h209l-205 -295h-209z" />
<glyph unicode="&#xca;" horiz-adv-x="1079" d="M113 0v1458h874v-213h-661v-409h661v-213h-661v-410h661v-213h-874zM240 1554l204 295h209l205 -295h-209l-100 156l-100 -156h-209z" />
<glyph unicode="&#xcb;" horiz-adv-x="1079" d="M113 0v1458h874v-213h-661v-409h661v-213h-661v-410h661v-213h-874zM199 1702q0 62 42.5 104.5t104.5 42.5t105 -43t43 -104q0 -62 -43 -105t-105 -43q-61 0 -104 43t-43 105zM604 1702q0 61 43 104t105 43t104.5 -42.5t42.5 -104.5t-43 -105t-104 -43q-62 0 -105 43 t-43 105z" />
<glyph unicode="&#xcc;" horiz-adv-x="458" d="M-86 1849h209l205 -295h-209zM92 0v213h31v1032h-31v213h275v-213h-31v-1032h31v-213h-275z" />
<glyph unicode="&#xcd;" horiz-adv-x="458" d="M92 0v213h31v1032h-31v213h275v-213h-31v-1032h31v-213h-275zM127 1554l205 295h209l-205 -295h-209z" />
<glyph unicode="&#xce;" horiz-adv-x="458" d="M-80 1554l205 295h209l205 -295h-209l-101 156l-100 -156h-209zM92 0v213h31v1032h-31v213h275v-213h-31v-1032h31v-213h-275z" />
<glyph unicode="&#xcf;" horiz-adv-x="458" d="M-121 1702q0 61 43 104t105 43q61 0 104 -42.5t43 -104.5t-43 -105t-104 -43t-104.5 43t-43.5 105zM92 0v213h31v1032h-31v213h275v-213h-31v-1032h31v-213h-275zM285 1702q0 62 42.5 104.5t104.5 42.5t105 -43t43 -104q0 -62 -43 -105t-105 -43q-61 0 -104 43t-43 105z " />
<glyph unicode="&#xd0;" horiz-adv-x="1325" d="M51 696v201h572v-201h-572zM154 0v213h30v1032h-30v213h389q198 0 364 -98.5t261.5 -266.5t95.5 -366q0 -149 -56.5 -283.5t-152.5 -231.5t-230 -154.5t-282 -57.5h-389zM399 213h144q213 0 360.5 150t147.5 364q0 141 -67 260t-184 188.5t-257 69.5h-144v-1032z" />
<glyph unicode="&#xd1;" horiz-adv-x="1107" d="M113 0v1458h266l395 -1018v1018h215v-1458h-266l-395 1018v-1018h-215zM193 1554l204 295h209l101 -155l100 155h209l-205 -295h-209l-100 156l-101 -156h-208z" />
<glyph unicode="&#xd2;" horiz-adv-x="1564" d="M61 727q0 149 56.5 284t152.5 233t230 156t282 58t282 -58t230 -156t152.5 -233t56.5 -284t-56.5 -283.5t-152.5 -231.5t-230 -154.5t-282 -57.5t-282 57.5t-230 154.5t-152.5 231.5t-56.5 283.5zM274 727q0 -214 147.5 -364t360.5 -150t360.5 150t147.5 364 q0 141 -67 260t-184 188.5t-257 69.5t-257 -69.5t-184 -188.5t-67 -260zM475 1849h209l205 -295h-209z" />
<glyph unicode="&#xd3;" horiz-adv-x="1564" d="M61 727q0 149 56.5 284t152.5 233t230 156t282 58t282 -58t230 -156t152.5 -233t56.5 -284t-56.5 -283.5t-152.5 -231.5t-230 -154.5t-282 -57.5t-282 57.5t-230 154.5t-152.5 231.5t-56.5 283.5zM274 727q0 -214 147.5 -364t360.5 -150t360.5 150t147.5 364 q0 141 -67 260t-184 188.5t-257 69.5t-257 -69.5t-184 -188.5t-67 -260zM676 1554l205 295h209l-205 -295h-209z" />
<glyph unicode="&#xd4;" horiz-adv-x="1564" d="M61 727q0 149 56.5 284t152.5 233t230 156t282 58t282 -58t230 -156t152.5 -233t56.5 -284t-56.5 -283.5t-152.5 -231.5t-230 -154.5t-282 -57.5t-282 57.5t-230 154.5t-152.5 231.5t-56.5 283.5zM274 727q0 -214 147.5 -364t360.5 -150t360.5 150t147.5 364 q0 141 -67 260t-184 188.5t-257 69.5t-257 -69.5t-184 -188.5t-67 -260zM473 1554l205 295h209l205 -295h-209l-101 156l-100 -156h-209z" />
<glyph unicode="&#xd5;" horiz-adv-x="1564" d="M61 727q0 149 56.5 284t152.5 233t230 156t282 58t282 -58t230 -156t152.5 -233t56.5 -284t-56.5 -283.5t-152.5 -231.5t-230 -154.5t-282 -57.5t-282 57.5t-230 154.5t-152.5 231.5t-56.5 283.5zM274 727q0 -214 147.5 -364t360.5 -150t360.5 150t147.5 364 q0 141 -67 260t-184 188.5t-257 69.5t-257 -69.5t-184 -188.5t-67 -260zM381 1554l205 295h209l100 -155l100 155h209l-205 -295h-208l-101 156l-100 -156h-209z" />
<glyph unicode="&#xd6;" horiz-adv-x="1564" d="M61 727q0 149 56.5 284t152.5 233t230 156t282 58t282 -58t230 -156t152.5 -233t56.5 -284t-56.5 -283.5t-152.5 -231.5t-230 -154.5t-282 -57.5t-282 57.5t-230 154.5t-152.5 231.5t-56.5 283.5zM274 727q0 -214 147.5 -364t360.5 -150t360.5 150t147.5 364 q0 141 -67 260t-184 188.5t-257 69.5t-257 -69.5t-184 -188.5t-67 -260zM432 1702q0 61 43 104t105 43t104.5 -42.5t42.5 -104.5t-43 -105t-104 -43q-62 0 -105 43t-43 105zM838 1702q0 62 43 104.5t104 42.5q62 0 105 -43t43 -104q0 -62 -43.5 -105t-104.5 -43t-104 43 t-43 105z" />
<glyph unicode="&#xd7;" horiz-adv-x="1226" d="M154 420l309 309l-309 309l149 152l311 -309l310 309l149 -152l-309 -309l309 -309l-149 -152l-310 310l-311 -310z" />
<glyph unicode="&#xd8;" horiz-adv-x="1564" d="M61 727q0 149 56.5 284t152.5 233t230 156t282 58q115 0 222 -35l53 117l155 -72l-53 -116q158 -98 251 -264t93 -361q0 -149 -56.5 -283.5t-152.5 -231.5t-230 -154.5t-282 -57.5q-106 0 -221 33l-51 -115l-156 72l52 114q-158 97 -251.5 262t-93.5 361zM274 727 q0 -132 59.5 -244t162.5 -182l419 926q-65 18 -133 18q-140 0 -257 -69.5t-184 -188.5t-67 -260zM651 229q66 -16 131 -16q213 0 360.5 150t147.5 364q0 130 -59 243.5t-162 184.5z" />
<glyph unicode="&#xd9;" horiz-adv-x="1091" d="M102 438v1020h213v-1020q0 -95 66 -160t160 -65t158.5 65t64.5 160v1020h213v-1458h-213v70q-98 -70 -223 -70q-182 0 -310.5 128.5t-128.5 309.5zM221 1849h209l205 -295h-209z" />
<glyph unicode="&#xda;" horiz-adv-x="1091" d="M102 438v1020h213v-1020q0 -95 66 -160t160 -65t158.5 65t64.5 160v1020h213v-1458h-213v70q-98 -70 -223 -70q-182 0 -310.5 128.5t-128.5 309.5zM432 1554l205 295h209l-205 -295h-209z" />
<glyph unicode="&#xdb;" horiz-adv-x="1091" d="M102 438v1020h213v-1020q0 -95 66 -160t160 -65t158.5 65t64.5 160v1020h213v-1458h-213v70q-98 -70 -223 -70q-182 0 -310.5 128.5t-128.5 309.5zM231 1554l205 295h209l205 -295h-209l-100 156l-101 -156h-209z" />
<glyph unicode="&#xdc;" horiz-adv-x="1091" d="M102 438v1020h213v-1020q0 -95 66 -160t160 -65t158.5 65t64.5 160v1020h213v-1458h-213v70q-98 -70 -223 -70q-182 0 -310.5 128.5t-128.5 309.5zM190 1702q0 61 43 104t105 43t104.5 -42.5t42.5 -104.5t-43 -105t-104 -43q-62 0 -105 43t-43 105zM596 1702 q0 62 43 104.5t104 42.5q62 0 105 -43t43 -104q0 -62 -43.5 -105t-104.5 -43t-104 43t-43 105z" />
<glyph unicode="&#xdd;" horiz-adv-x="995" d="M63 1458h213l224 -516l223 516h215l-332 -729v-516h31v-213h-275v213h31v516zM385 1554l205 295h209l-205 -295h-209z" />
<glyph unicode="&#xde;" horiz-adv-x="1085" d="M131 0v1458h215v-301h234q174 0 301 -123t127 -295q0 -173 -123 -295t-297 -122h-242v-322h-215zM346 535h234q86 0 149.5 60t63.5 144q0 85 -59.5 144t-145.5 59h-242v-407z" />
<glyph unicode="&#xdf;" horiz-adv-x="1226" d="M154 420l309 309l-309 309l149 152l311 -309l310 309l149 -152l-309 -309l309 -309l-149 -152l-310 310l-311 -310z" />
<glyph unicode="&#xe0;" d="M51 449q0 189 135 323.5t324 134.5q159 0 254 -98v88h205v-897h-205v88q-95 -98 -254 -98q-189 0 -324 135t-135 324zM203 1288h209l204 -295h-208zM254 449q0 -106 74 -180t180 -74q104 0 177.5 70t78.5 173v21q-5 103 -78.5 174.5t-177.5 71.5q-106 0 -180 -74.5 t-74 -181.5z" />
<glyph unicode="&#xe1;" d="M51 449q0 189 135 323.5t324 134.5q159 0 254 -98v88h205v-897h-205v88q-95 -98 -254 -98q-189 0 -324 135t-135 324zM254 449q0 -106 74 -180t180 -74q104 0 177.5 70t78.5 173v21q-5 103 -78.5 174.5t-177.5 71.5q-106 0 -180 -74.5t-74 -181.5zM399 993l205 295h209 l-205 -295h-209z" />
<glyph unicode="&#xe2;" d="M51 449q0 189 135 323.5t324 134.5q159 0 254 -98v88h205v-897h-205v88q-95 -98 -254 -98q-189 0 -324 135t-135 324zM203 993l205 295h208l205 -295h-209l-100 156l-100 -156h-209zM254 449q0 -106 74 -180t180 -74q104 0 177.5 70t78.5 173v21q-5 103 -78.5 174.5 t-177.5 71.5q-106 0 -180 -74.5t-74 -181.5z" />
<glyph unicode="&#xe3;" horiz-adv-x="995" d="M31 449q0 189 134.5 323.5t323.5 134.5q159 0 254 -98v88h205v-897h-205v88q-95 -98 -254 -98q-189 0 -323.5 135t-134.5 324zM125 993l205 295h209l100 -155l100 155h209l-205 -295h-208l-101 156l-100 -156h-209zM233 449q0 -106 74 -180t180 -74q104 0 177.5 70 t78.5 173v21q-5 103 -78.5 174.5t-177.5 71.5q-106 0 -180 -74.5t-74 -181.5z" />
<glyph unicode="&#xe4;" d="M51 449q0 189 135 323.5t324 134.5q159 0 254 -98v88h205v-897h-205v88q-95 -98 -254 -98q-189 0 -324 135t-135 324zM158 1141q0 61 43 104t104 43q62 0 105 -43t43 -104t-43.5 -104.5t-104.5 -43.5t-104 43t-43 105zM254 449q0 -106 74 -180t180 -74q104 0 177.5 70 t78.5 173v21q-5 103 -78.5 174.5t-177.5 71.5q-106 0 -180 -74.5t-74 -181.5zM563 1141q0 61 43 104t105 43q61 0 104 -43t43 -104q0 -62 -43 -105t-104 -43t-104.5 43.5t-43.5 104.5z" />
<glyph unicode="&#xe5;" d="M51 449q0 189 135 323.5t324 134.5q159 0 254 -98v88h205v-897h-205v88q-95 -98 -254 -98q-189 0 -324 135t-135 324zM254 449q0 -106 74 -180t180 -74q104 0 177.5 70t78.5 173v21q-5 103 -78.5 174.5t-177.5 71.5q-106 0 -180 -74.5t-74 -181.5zM291 1212 q0 91 64 155.5t155 64.5t155 -64.5t64 -155.5t-64 -155t-155 -64t-155 64t-64 155zM434 1212q0 -31 22.5 -53t53.5 -22t53.5 22t22.5 53t-22.5 53.5t-53.5 22.5t-53.5 -22.5t-22.5 -53.5z" />
<glyph unicode="&#xe6;" horiz-adv-x="1675" d="M51 449q0 189 135 323.5t324 134.5q159 0 254 -98v88h205v-88q47 49 113.5 73.5t134.5 24.5q121 0 223.5 -61.5t160.5 -164.5t58 -224q0 -62 -10 -101h-666q17 -74 86 -122t154 -48q152 0 221 119l180 -90q-61 -106 -163.5 -165.5t-233.5 -59.5q-163 0 -258 98v-88h-205 v88q-95 -98 -254 -98q-189 0 -324 135t-135 324zM254 449q0 -106 74 -180t180 -74q104 0 177.5 70t78.5 173v21q-5 103 -78.5 174.5t-177.5 71.5q-106 0 -180 -74.5t-74 -181.5zM977 541h467q-19 78 -80.5 125t-151.5 47q-88 0 -148.5 -46.5t-86.5 -125.5z" />
<glyph unicode="&#xe7;" horiz-adv-x="946" d="M51 449q0 189 135 323.5t324 134.5q141 0 243.5 -67t161.5 -187l-178 -90q-31 69 -91 108.5t-138 39.5q-107 0 -180.5 -76t-73.5 -186q0 -109 73.5 -185t180.5 -76q78 0 138 39t91 107l178 -90q-57 -120 -160.5 -187t-244.5 -67q-189 0 -324 135t-135 324zM248 -438 l166 370h209l-166 -370h-209z" />
<glyph unicode="&#xe8;" horiz-adv-x="997" d="M51 449q0 190 130.5 324t318.5 134q187 0 316.5 -132.5t129.5 -317.5q0 -62 -10 -101h-666q17 -74 86 -122t154 -48q152 0 221 119l180 -90q-61 -106 -163.5 -165.5t-233.5 -59.5q-195 0 -329 133.5t-134 325.5zM190 1288h209l205 -295h-209zM264 541h467q-19 78 -80 125 t-151 47q-88 0 -149 -46.5t-87 -125.5z" />
<glyph unicode="&#xe9;" horiz-adv-x="997" d="M51 449q0 190 130.5 324t318.5 134q187 0 316.5 -132.5t129.5 -317.5q0 -62 -10 -101h-666q17 -74 86 -122t154 -48q152 0 221 119l180 -90q-61 -106 -163.5 -165.5t-233.5 -59.5q-195 0 -329 133.5t-134 325.5zM264 541h467q-19 78 -80 125t-151 47q-88 0 -149 -46.5 t-87 -125.5zM375 993l205 295h208l-204 -295h-209z" />
<glyph unicode="&#xea;" horiz-adv-x="997" d="M51 449q0 190 130.5 324t318.5 134q187 0 316.5 -132.5t129.5 -317.5q0 -62 -10 -101h-666q17 -74 86 -122t154 -48q152 0 221 119l180 -90q-61 -106 -163.5 -165.5t-233.5 -59.5q-195 0 -329 133.5t-134 325.5zM190 993l205 295h209l205 -295h-209l-100 156l-101 -156 h-209zM264 541h467q-19 78 -80 125t-151 47q-88 0 -149 -46.5t-87 -125.5z" />
<glyph unicode="&#xeb;" horiz-adv-x="997" d="M51 449q0 190 130.5 324t318.5 134q187 0 316.5 -132.5t129.5 -317.5q0 -62 -10 -101h-666q17 -74 86 -122t154 -48q152 0 221 119l180 -90q-61 -106 -163.5 -165.5t-233.5 -59.5q-195 0 -329 133.5t-134 325.5zM147 1141q0 61 43 104t105 43q61 0 104 -43t43 -104 q0 -62 -43 -105t-104 -43t-104.5 43.5t-43.5 104.5zM264 541h467q-19 78 -80 125t-151 47q-88 0 -149 -46.5t-87 -125.5zM553 1141q0 61 42.5 104t104.5 43t105 -43t43 -104t-43 -104.5t-105 -43.5q-61 0 -104 43t-43 105z" />
<glyph unicode="&#xec;" horiz-adv-x="403" d="M-111 1288h209l205 -295h-209zM96 0v897h209v-897h-209z" />
<glyph unicode="&#xed;" horiz-adv-x="403" d="M96 0v897h209v-897h-209zM98 993l205 295h209l-205 -295h-209z" />
<glyph unicode="&#xee;" horiz-adv-x="403" d="M-109 993l205 295h209l205 -295h-209l-100 156l-101 -156h-209zM96 0v897h209v-897h-209z" />
<glyph unicode="&#xef;" horiz-adv-x="403" d="M-150 1141q0 61 43 104t105 43t104.5 -43t42.5 -104q0 -62 -43 -105t-104 -43q-62 0 -105 43.5t-43 104.5zM96 0v897h209v-897h-209zM256 1141q0 61 43 104t104 43q62 0 105 -43t43 -104t-43.5 -104.5t-104.5 -43.5t-104 43t-43 105z" />
<glyph unicode="&#xf0;" horiz-adv-x="1028" d="M51 449q0 124 61.5 229.5t162.5 166t214 60.5q64 0 107 -14l-258 567h215l367 -809q47 -99 47 -200q0 -189 -134 -324t-323 -135t-324 135t-135 324zM254 449q0 -109 73 -185t181 -76q109 0 182.5 75.5t73.5 185.5q0 111 -73 186.5t-183 75.5q-108 0 -181 -75.5 t-73 -186.5zM311 944v219l490 295v-217z" />
<glyph unicode="&#xf1;" horiz-adv-x="925" d="M102 0v897h205v-96q47 56 101 81t127 25q130 0 220.5 -94t90.5 -227v-586h-205v530q0 84 -45 134.5t-125 50.5q-73 0 -118.5 -50.5t-45.5 -127.5v-537h-205zM102 993l205 295h209l100 -155l101 155h209l-205 -295h-209l-100 156l-101 -156h-209z" />
<glyph unicode="&#xf2;" horiz-adv-x="1017" d="M51 449q0 189 135 323.5t324 134.5t323 -134.5t134 -323.5t-134 -324t-323 -135t-324 135t-135 324zM201 1288h209l204 -295h-208zM254 449q0 -109 73 -185t181 -76q109 0 182.5 75.5t73.5 185.5q0 111 -73 186.5t-183 75.5q-108 0 -181 -75.5t-73 -186.5z" />
<glyph unicode="&#xf3;" horiz-adv-x="1017" d="M51 449q0 189 135 323.5t324 134.5t323 -134.5t134 -323.5t-134 -324t-323 -135t-324 135t-135 324zM254 449q0 -109 73 -185t181 -76q109 0 182.5 75.5t73.5 185.5q0 111 -73 186.5t-183 75.5q-108 0 -181 -75.5t-73 -186.5zM401 993l205 295h209l-205 -295h-209z" />
<glyph unicode="&#xf4;" horiz-adv-x="1017" d="M51 449q0 189 135 323.5t324 134.5t323 -134.5t134 -323.5t-134 -324t-323 -135t-324 135t-135 324zM199 991l204 295h209l205 -295h-209l-100 156l-100 -156h-209zM254 449q0 -109 73 -185t181 -76q109 0 182.5 75.5t73.5 185.5q0 111 -73 186.5t-183 75.5 q-108 0 -181 -75.5t-73 -186.5z" />
<glyph unicode="&#xf5;" horiz-adv-x="700" d="M-119 449q0 189 135 323.5t324 134.5t323 -134.5t134 -323.5t-134 -324t-323 -135t-324 135t-135 324zM-39 993l205 295h209l100 -155l100 155h209l-204 -295h-209l-101 156l-100 -156h-209zM84 449q0 -109 73 -185t181 -76q109 0 182.5 75.5t73.5 185.5q0 111 -73 186.5 t-183 75.5q-108 0 -181 -75.5t-73 -186.5z" />
<glyph unicode="&#xf6;" horiz-adv-x="1017" d="M51 449q0 189 135 323.5t324 134.5t323 -134.5t134 -323.5t-134 -324t-323 -135t-324 135t-135 324zM158 1120q0 62 43 105t104 43t104.5 -43t43.5 -105q0 -61 -43 -104t-105 -43q-61 0 -104 42.5t-43 104.5zM254 449q0 -109 73 -185t181 -76q109 0 182.5 75.5 t73.5 185.5q0 111 -73 186.5t-183 75.5q-108 0 -181 -75.5t-73 -186.5zM563 1120q0 62 43.5 105t104.5 43t104 -43t43 -105t-43 -104.5t-104 -42.5q-62 0 -105 43t-43 104z" />
<glyph unicode="&#xf7;" horiz-adv-x="1122" d="M123 623v213h876v-213h-876zM414 414q0 62 43 104.5t104 42.5q62 0 105 -43t43 -104q0 -62 -43.5 -105t-104.5 -43t-104 43t-43 105zM414 1044q0 62 43 105t104 43t104.5 -43t43.5 -105q0 -61 -43 -104t-105 -43q-61 0 -104 42.5t-43 104.5z" />
<glyph unicode="&#xf8;" horiz-adv-x="1017" d="M51 449q0 189 135 323.5t324 134.5q47 0 108 -14l41 90l156 -72l-41 -90q89 -65 141 -162t52 -210q0 -189 -134 -324t-323 -135q-56 0 -109 12l-36 -84l-156 72l37 84q-90 63 -142.5 161.5t-52.5 213.5zM254 449q0 -113 76 -189l205 449q-8 2 -27 2q-108 0 -181 -75.5 t-73 -186.5zM487 188h21q109 0 182.5 75.5t73.5 185.5q0 109 -74 186z" />
<glyph unicode="&#xf9;" horiz-adv-x="937" d="M92 311v586h205v-530q0 -84 45 -134.5t125 -50.5q73 0 118.5 50.5t45.5 127.5v537h205v-897h-205v96q-47 -56 -101 -81t-127 -25q-130 0 -220.5 94t-90.5 227zM143 1288h209l205 -295h-209z" />
<glyph unicode="&#xfa;" horiz-adv-x="937" d="M92 311v586h205v-530q0 -84 45 -134.5t125 -50.5q73 0 118.5 50.5t45.5 127.5v537h205v-897h-205v96q-47 -56 -101 -81t-127 -25q-130 0 -220.5 94t-90.5 227zM360 993l205 295h209l-205 -295h-209z" />
<glyph unicode="&#xfb;" horiz-adv-x="937" d="M92 311v586h205v-530q0 -84 45 -134.5t125 -50.5q73 0 118.5 50.5t45.5 127.5v537h205v-897h-205v96q-47 -56 -101 -81t-127 -25q-130 0 -220.5 94t-90.5 227zM156 993l204 295h209l205 -295h-209l-100 156l-100 -156h-209z" />
<glyph unicode="&#xfc;" horiz-adv-x="937" d="M92 311v586h205v-530q0 -84 45 -134.5t125 -50.5q73 0 118.5 50.5t45.5 127.5v537h205v-897h-205v96q-47 -56 -101 -81t-127 -25q-130 0 -220.5 94t-90.5 227zM115 1141q0 61 42.5 104t104.5 43t105 -43t43 -104t-43 -104.5t-105 -43.5q-61 0 -104 43t-43 105zM520 1141 q0 61 43 104t105 43t104.5 -43t42.5 -104q0 -62 -43 -105t-104 -43q-62 0 -105 43.5t-43 104.5z" />
<glyph unicode="&#xfd;" horiz-adv-x="894" d="M-4 897h225l221 -526l234 526h217l-641 -1413h-213l299 663zM344 993l205 295h209l-205 -295h-209z" />
<glyph unicode="&#xfe;" d="M102 -516v1974h205v-649q95 98 254 98q189 0 324 -134.5t135 -323.5t-135 -324t-324 -135q-159 0 -254 98v-604h-205zM307 438q5 -103 78.5 -173t177.5 -70q106 0 180 74t74 180q0 107 -74 181.5t-180 74.5q-104 0 -177.5 -71.5t-78.5 -174.5v-21z" />
<glyph unicode="&#xff;" horiz-adv-x="894" d="M-4 897h225l221 -526l234 526h217l-641 -1413h-213l299 663zM96 1141q0 61 43 104t105 43t104.5 -43t42.5 -104q0 -62 -43 -105t-104 -43q-62 0 -105 43.5t-43 104.5zM502 1141q0 61 43 104t104 43q62 0 105 -43t43 -104t-43.5 -104.5t-104.5 -43.5t-104 43t-43 105z" />
<glyph unicode="&#x152;" horiz-adv-x="2256" d="M61 727q0 149 56.5 284t152.5 233t230 156t282 58q150 0 281.5 -57t226.5 -164v221h875v-213h-662v-409h662v-213h-662v-410h662v-213h-875v217q-95 -105 -226.5 -161t-281.5 -56q-148 0 -282 57.5t-230 154.5t-152.5 231.5t-56.5 283.5zM274 727q0 -214 147.5 -364 t360.5 -150t360.5 150t147.5 364q0 141 -67 260t-184 188.5t-257 69.5t-257 -69.5t-184 -188.5t-67 -260z" />
<glyph unicode="&#x153;" horiz-adv-x="1710" d="M51 449q0 189 135 323.5t324 134.5q107 0 198.5 -47t153.5 -133q62 87 152 133.5t198 46.5q187 0 317 -132.5t130 -317.5q0 -62 -10 -101h-666q17 -74 86 -122t154 -48q152 0 221 119l180 -90q-61 -106 -163.5 -165.5t-233.5 -59.5q-115 0 -209 46t-156 132 q-61 -86 -152.5 -132t-199.5 -46q-189 0 -324 135t-135 324zM254 449q0 -109 73 -185t181 -76q109 0 182.5 75.5t73.5 185.5q0 111 -73 186.5t-183 75.5q-108 0 -181 -75.5t-73 -186.5zM977 541h467q-19 78 -80.5 125t-151.5 47q-88 0 -148.5 -46.5t-86.5 -125.5z" />
<glyph unicode="&#x178;" horiz-adv-x="894" d="M10 1458h213l223 -516l224 516h215l-332 -729v-516h31v-213h-275v213h31v516zM96 1702q0 61 43 104t105 43t104.5 -42.5t42.5 -104.5t-43 -105t-104 -43q-62 0 -105 43t-43 105zM502 1702q0 62 43 104.5t104 42.5q62 0 105 -43t43 -104q0 -62 -43.5 -105t-104.5 -43 t-104 43t-43 105z" />
<glyph unicode="&#x2c6;" horiz-adv-x="577" d="M-20 1554l204 295h209l205 -295h-209l-100 156l-101 -156h-208z" />
<glyph unicode="&#x2dc;" horiz-adv-x="700" d="M-61 1554l204 295h209l101 -155l100 155h209l-205 -295h-209l-100 156l-101 -156h-208z" />
<glyph unicode="&#x2000;" horiz-adv-x="924" />
<glyph unicode="&#x2001;" horiz-adv-x="1849" />
<glyph unicode="&#x2002;" horiz-adv-x="924" />
<glyph unicode="&#x2003;" horiz-adv-x="1849" />
<glyph unicode="&#x2004;" horiz-adv-x="616" />
<glyph unicode="&#x2005;" horiz-adv-x="462" />
<glyph unicode="&#x2006;" horiz-adv-x="308" />
<glyph unicode="&#x2007;" horiz-adv-x="308" />
<glyph unicode="&#x2008;" horiz-adv-x="231" />
<glyph unicode="&#x2009;" horiz-adv-x="369" />
<glyph unicode="&#x200a;" horiz-adv-x="102" />
<glyph unicode="&#x2010;" horiz-adv-x="712" d="M61 410v204h590v-204h-590z" />
<glyph unicode="&#x2011;" horiz-adv-x="712" d="M61 410v204h590v-204h-590z" />
<glyph unicode="&#x2012;" horiz-adv-x="712" d="M61 410v204h590v-204h-590z" />
<glyph unicode="&#x2013;" horiz-adv-x="921" d="M23 406v208h876v-208h-876z" />
<glyph unicode="&#x2014;" horiz-adv-x="1638" d="M123 406v208h1393v-208h-1393z" />
<glyph unicode="&#x2018;" horiz-adv-x="436" d="M61 1112q0 163 77.5 234t230.5 73v-94q-89 0 -136 -37q-40 -37 -43 -82q2 3 14.5 7t22.5 4q66 0 107 -42t41 -104t-43.5 -105.5t-104.5 -43.5q-74 0 -120 52t-46 138z" />
<glyph unicode="&#x2019;" horiz-adv-x="436" d="M61 1270q0 62 43.5 105.5t104.5 43.5q74 0 120 -52t46 -138q0 -163 -77 -234t-230 -73v94q88 0 135 37q40 37 43 82q-2 -3 -14.5 -7t-22.5 -4q-66 0 -107 42t-41 104z" />
<glyph unicode="&#x201a;" horiz-adv-x="436" d="M61 135q0 62 43.5 106t104.5 44q74 0 120 -52.5t46 -138.5q0 -163 -77 -234t-230 -73v94q88 0 135 37q40 37 43 82q-2 -3 -14.5 -6.5t-22.5 -3.5q-66 0 -107 42t-41 103z" />
<glyph unicode="&#x201c;" horiz-adv-x="811" d="M61 1112q0 163 77.5 234t230.5 73v-94q-89 0 -136 -37q-40 -37 -43 -82q2 3 14.5 7t22.5 4q66 0 107 -42t41 -104t-43.5 -105.5t-104.5 -43.5q-74 0 -120 52t-46 138zM436 1112q0 163 77 234t230 73v-94q-88 0 -135 -37q-40 -37 -43 -82q2 3 14.5 7t22.5 4q66 0 107 -42 t41 -104t-43.5 -105.5t-104.5 -43.5q-74 0 -120 52t-46 138z" />
<glyph unicode="&#x201d;" horiz-adv-x="811" d="M61 1270q0 62 43.5 105.5t104.5 43.5q74 0 120 -52t46 -138q0 -163 -77 -234t-230 -73v94q88 0 135 37q40 37 43 82q-2 -3 -14.5 -7t-22.5 -4q-66 0 -107 42t-41 104zM436 1270q0 62 43.5 105.5t104.5 43.5q74 0 120 -52t46 -138q0 -163 -77.5 -234t-230.5 -73v94 q89 0 136 37q40 37 43 82q-2 -3 -14.5 -7t-22.5 -4q-66 0 -107 42t-41 104z" />
<glyph unicode="&#x201e;" horiz-adv-x="811" d="M61 135q0 62 43.5 106t104.5 44q74 0 120 -52.5t46 -138.5q0 -163 -77 -234t-230 -73v94q88 0 135 37q40 37 43 82q-2 -3 -14.5 -6.5t-22.5 -3.5q-66 0 -107 42t-41 103zM436 135q0 62 43.5 106t104.5 44q74 0 120 -52.5t46 -138.5q0 -163 -77.5 -234t-230.5 -73v94 q89 0 136 37q40 37 43 82q-2 -3 -14.5 -6.5t-22.5 -3.5q-66 0 -107 42t-41 103z" />
<glyph unicode="&#x2022;" horiz-adv-x="628" d="M154 729q0 66 47 114t112 48q66 0 114 -48t48 -114t-48 -113t-114 -47q-65 0 -112 47t-47 113z" />
<glyph unicode="&#x2026;" horiz-adv-x="1130" d="M61 137q0 61 43.5 104.5t104.5 43.5t104 -43t43 -105q0 -61 -43 -104t-104 -43q-62 0 -105 43t-43 104zM418 137q0 62 43 105t104 43t104.5 -43.5t43.5 -104.5t-43 -104t-105 -43q-61 0 -104 43t-43 104zM774 137q0 61 43 104.5t105 43.5q61 0 104 -43t43 -105 q0 -61 -42.5 -104t-104.5 -43t-105 43t-43 104z" />
<glyph unicode="&#x202f;" horiz-adv-x="369" />
<glyph unicode="&#x2039;" horiz-adv-x="622" d="M41 680l297 487h213l-295 -487l295 -485h-213z" />
<glyph unicode="&#x203a;" horiz-adv-x="622" d="M72 195l297 485l-297 487h215l295 -487l-295 -485h-215z" />
<glyph unicode="&#x205f;" horiz-adv-x="462" />
<glyph unicode="&#x20ac;" horiz-adv-x="1591" d="M51 467v184h137q-4 40 -4 62h-133v184h152q58 245 252 403t450 158q210 0 382 -110t263 -293l-190 -97q-64 130 -185.5 208.5t-269.5 78.5q-166 0 -296.5 -97t-184.5 -251h420v-184h-447q0 -22 4 -62h443v-184h-379q67 -117 183.5 -185.5t256.5 -68.5q150 0 271 77.5 t184 207.5l190 -97q-89 -182 -261.5 -291.5t-383.5 -109.5q-230 0 -413 129.5t-261 337.5h-180z" />
<glyph unicode="&#x2122;" horiz-adv-x="968" d="M61 1376v82h336v-82h-127v-479h-82v479h-127zM381 897l100 561h82l86 -379l86 379h82l101 -561h-82l-66 356l-80 -356h-82l-82 356l-63 -356h-82z" />
<glyph unicode="&#x25fc;" horiz-adv-x="901" d="M0 0v901h901v-901h-901z" />
<glyph unicode="&#xfb01;" horiz-adv-x="874" d="M51 700v197h133v281q0 120 84.5 205t204.5 85t204.5 -85t84.5 -205v-101h-205v101q0 38 -23.5 62t-60.5 24t-60.5 -24t-23.5 -62v-281h373v-897h-205v700h-168v-700h-205v700h-133z" />
<glyph unicode="&#xfb02;" horiz-adv-x="874" d="M51 700v197h133v270q0 120 84.5 205.5t204.5 85.5h43v-205h-43q-37 0 -60.5 -24t-23.5 -62v-270h168v561h205v-1458h-205v700h-168v-700h-205v700h-133z" />
</font>
</defs>
</svg>
