<?xml version="1.0" encoding="utf-8"?>
<!-- Generator: Adobe Illustrator 17.1.0, SVG Export Plug-In . SVG Version: 6.00 Build 0)  -->
<!DOCTYPE svg PUBLIC "-//W3C//DTD SVG 1.1//EN" "http://www.w3.org/Graphics/SVG/1.1/DTD/svg11.dtd">
<svg version="1.1" id="Layer_1" xmlns="http://www.w3.org/2000/svg" xmlns:xlink="http://www.w3.org/1999/xlink" x="0px" y="0px"
	 viewBox="0 0 1440 900" style="enable-background:new 0 0 1440 900;" xml:space="preserve">
<style type="text/css">
	.st0 {
		fill: none;
		stroke: #ff00d7;
		stroke-width: 1.25;
		stroke-dasharray: 1500;
		stroke-dashoffset: 0;
		-webkit-animation: dash 4s ease-in forwards;
		-moz-animation: dash 4s ease-in forwards;
		animation: dash 4s ease-in forwards;
	}
	@-webkit-keyframes dash {
		0% {
			stroke-dashoffset: 1500;
		}

		50% {
			stroke-dashoffset: 0;
		}

		100% {
			stroke-dashoffset: -1500;
		}

</style>
<g>
	<g>
		<path class="st0" d="M159.3,119.6c0-18.5-0.9-32.6-17.6-44h129.8c72.6,0,127.6,29.5,127.6,97.7s-55,97.7-127.6,97.7H235v117
			c0,18.5,0.9,32.6,17.6,44H141.7c16.7-11.4,17.6-25.5,17.6-44V119.6z M235,255.5h25.5c44,0,62.9-38.3,62.9-82.3
			c0-44-10.1-84.5-54.1-84.5c-22,0-34.3,13.2-34.3,35.2V255.5z"/>
		<path class="st0" d="M576,322c0,70.4-42.2,116.6-103.8,116.6S368.3,392.4,368.3,322c0-66,42.2-116.6,103.8-116.6S576,256,576,322z
			 M435.2,370.4c0,30.8,8.4,55,37,55s37-24.2,37-55v-96.8c0-30.8-8.4-55-37-55s-37,24.2-37,55V370.4z"/>
		<path class="st0" d="M624.9,245c0,19.8,18,27.3,37,34.8l34.3,13.6c34.8,13.6,52.4,35.2,52.4,66c0,48.4-33,80.1-92.4,80.1
			c-35.2,0-63.8-11.9-75.7-20.7l26-59.8c0,0.4,14.5,66.4,58.5,66.4c24.2,0,35.2-15.4,35.2-35.2c0-22-16.7-32.1-42.7-42.7l-32.1-13.2
			c-27.3-11.4-38.7-32.1-38.7-57.2c0-40.9,32.1-71.7,81.4-71.7c39.6,0,66,13.6,66,13.6l-20.7,53.7c0-0.4-15.4-54.1-57.6-54.1
			C636.7,218.6,624.9,229.1,624.9,245z"/>
		<path class="st0" d="M741.9,223l93.3-99v83.6h32.6V223h-32.6v132.9c0,24.2,1.3,49.3,29,49.3c11.9,0,25.1-5.3,32.6-27.3
			c0,41.8-24.6,61.6-62.5,61.6c-44,0-66-33-66-83.6V223H741.9z"/>
		<path class="st0" d="M1262,293.4v26.4H910v-26.4H1262z"/>
		<path class="st0" d="M413.4,504.6c0-18.5-0.9-32.6-17.6-44h129.8c72.6,0,127.6,29.5,127.6,97.7s-55,97.7-127.6,97.7h-36.5v117
			c0,18.5,0.9,32.6,17.6,44H395.8c16.7-11.4,17.6-25.5,17.6-44V504.6z M489.1,640.5h25.5c44,0,62.9-38.3,62.9-82.3
			c0-44-10.1-84.5-54.1-84.5c-22,0-34.3,13.2-34.3,35.2V640.5z"/>
		<path class="st0" d="M731.1,579.4V773c0,22,0,30.8,15.4,44h-97.7c15.4-13.2,15.4-22,15.4-44V668.7c0-21.1-2.6-33.9-24.2-44
			C679.2,624.7,713.5,608,731.1,579.4z M779.1,589.5c22.9,0,41.4,18.5,41.4,41.4c0,22.9-18.5,41.4-41.4,41.4
			c-22.9,0-41.4-18.5-41.4-41.4C737.7,608,756.2,589.5,779.1,589.5z"/>
		<path class="st0" d="M913.7,579.4V773c0,22,0,30.8,15.4,44h-97.7c15.4-13.2,15.4-22,15.4-44V668.7c0-21.1-2.6-33.9-24.2-44
			C861.8,624.7,896.1,608,913.7,579.4z M872.3,487c22.9,0,41.4,18.5,41.4,41.4c0,22.9-18.5,41.4-41.4,41.4S831,551.2,831,528.3
			C831,505.4,849.5,487,872.3,487z"/>
		<path class="st0" d="M1020.2,579.4v38.7c17.6-17.6,39.6-28.6,66-28.6c26.4,0,50.6,15.4,50.6,44V773c0,22,0,30.8,15.4,44h-97.7
			c15.4-13.2,15.4-22,15.4-44V651.1c0-17.6-8.8-28.6-26.4-28.6c-11,0-18.9,4.8-23.3,8.8V773c0,22,0,30.8,15.4,44h-97.7
			c15.4-13.2,15.4-22,15.4-44V668.7c0-21.1-2.6-33.9-24.2-44C968.3,624.7,1002.6,608,1020.2,579.4z"/>
		<path class="st0" d="M1143.4,608l93.3-99v83.6h32.6V608h-32.6v132.9c0,24.2,1.3,49.3,29,49.3c11.9,0,25.1-5.3,32.6-27.3
			c0,41.8-24.6,61.6-62.5,61.6c-44,0-66-33-66-83.6V608H1143.4z"/>
	</g>
</g>
</svg>
